<?xml version="1.0" encoding="UTF-8" standalone="no"?>
<!DOCTYPE svg PUBLIC "-//W3C//DTD SVG 1.1//EN"
 "http://www.w3.org/Graphics/SVG/1.1/DTD/svg11.dtd">
<!-- Generated by graphviz version 2.26.3 (20100126.1600)
 -->
<!-- Title: G Pages: 1 -->
<svg width="107pt" height="98pt"
 viewBox="0.00 0.00 107.00 98.00" xmlns="http://www.w3.org/2000/svg" xmlns:xlink="http://www.w3.org/1999/xlink">
<g id="graph1" class="graph" transform="scale(1 1) rotate(0) translate(4 94)">
<title>G</title>
<polygon fill="white" stroke="white" points="-4,5 -4,-94 104,-94 104,5 -4,5"/>
<g id="graph2" class="cluster"><title>cluster_Memcached</title>
<polyline fill="none" stroke="gray" points="20,-8 79,-8 "/>
<path fill="none" stroke="gray" d="M79,-8C85,-8 91,-14 91,-20"/>
<polyline fill="none" stroke="gray" points="91,-20 91,-70 "/>
<path fill="none" stroke="gray" d="M91,-70C91,-76 85,-82 79,-82"/>
<polyline fill="none" stroke="gray" points="79,-82 20,-82 "/>
<path fill="none" stroke="gray" d="M20,-82C14,-82 8,-76 8,-70"/>
<polyline fill="none" stroke="gray" points="8,-70 8,-20 "/>
<path fill="none" stroke="gray" d="M8,-20C8,-14 14,-8 20,-8"/>
<text text-anchor="middle" x="49.5" y="-68.1" font-family="Times Roman,serif" font-size="11.00" fill="gray">Memcached</text>
</g>
<!-- \\Memcached\\Wrapper -->
<g id="node2" class="node"><title>\\Memcached\\Wrapper</title>
<a xlink:href="Wrapper.html" xlink:title="Wrapper" target="_parent">
<polygon fill="none" stroke="black" points="82,-52 18,-52 18,-16 82,-16 82,-52"/>
<text text-anchor="middle" x="50" y="-31.1" font-family="Courier,monospace" font-size="11.00">Wrapper</text>
</a>
</g>
</g>
</svg>
