<?xml version="1.0" encoding="UTF-8" standalone="no"?>
<!DOCTYPE svg PUBLIC "-//W3C//DTD SVG 1.0//EN"
 "http://www.w3.org/TR/2001/REC-SVG-20010904/DTD/svg10.dtd" [
 <!ATTLIST svg xmlns:xlink CDATA #FIXED "http://www.w3.org/1999/xlink">
]>
<!-- Generated by Graphviz version 2.12 (Wed Nov 23 19:29:33 UTC 2011)
     For user: (maintenr)  -->
<!-- Title: G Pages: 1 -->
<svg width="1.30in" height="1.45in"
 xmlns="http://www.w3.org/2000/svg" xmlns:xlink="http://www.w3.org/1999/xlink">
<g id="graph0" class="graph" transform="scale(1.33333 1.33333) rotate(0) translate(4 101)">
<title>G</title>
<polygon style="fill:white;stroke:white;" points="-4,4 -4,-101 90,-101 90,4 -4,4"/>
<g id="cluster2" class="cluster"><title>cluster_Cache</title>
<polyline style="fill:none;stroke:gray;" points="-4,-16 12,-16 "/>
<path style="fill:none;stroke:gray;" d="M12,-16C6,-16 5.333e-315,-10 5.333e-315,-4"/>
<polyline style="fill:none;stroke:gray;" points="5.333e-315,-4 5.333e-315,-12 "/>
<path style="fill:none;stroke:gray;" d="M5.333e-315,-12C5.333e-315,-6 6,-7.75834e-308 12,-7.75834e-308"/>
<polyline style="fill:none;stroke:gray;" points="12,-7.75834e-308 -4,-7.75834e-308 "/>
<path style="fill:none;stroke:gray;" d="M-4,-7.75834e-308C2,-7.75834e-308 8,-6 8,-12"/>
<polyline style="fill:none;stroke:gray;" points="8,-12 8,-4 "/>
<path style="fill:none;stroke:gray;" d="M8,-4C8,-10 2,-16 -4,-16"/>
<text text-anchor="middle" x="43" y="-75" style="font-family:Nimbus Roman No9 L;font-weight:regular;font-size:8.91pt;fill:gray;">Cache</text>
</g>
<!-- \\Cache\\Cache -->
<g id="node2" class="node"><title>\\Cache\\Cache</title>
<a xlink:href="Cache.html" xlink:title="Cache" target="_parent">
<polygon style="fill:none;stroke:black;" points="70,-60 16,-60 16,-24 70,-24 70,-60"/>
<text text-anchor="middle" x="43" y="-38" style="font-family:Nimbus Mono L;font-weight:regular;font-size:8.91pt;">Cache</text>
</a>
</g>
</g>
</svg>
